<svg id="Layer_1" xmlns="http://www.w3.org/2000/svg" viewBox="0 0 213.6 212.3"><style>.st0{fill:none}.st1{fill:#FFF}</style><path class="st0" d="M55.6 104.9h44.2M69.8 100.2h41.8M67.9 104.9h41.7"/><path class="st1" d="M140.3 156c-27 0-40.5-11.4-40.5-34.1V79.2c0-2.3.2-4.4.5-6.4H42.5v19.6H89L65.8 112H42.5v39.2l-20.9 17.6c19.5 25.2 50.4 41.5 85.1 41.5 40.3 0 75.4-21.9 93.6-54.2h-60z"/><path class="st1" d="M140.3 138.9h40.5l19.8 16.6c8.3-14.8 13-31.9 13-50 0-18.6-4.9-36-13.6-51.1l-19.1 16.1h-50.7c-6.8 0-10.1 2.8-10.1 8.5v42.7c0 11.5 6.7 17.2 20.2 17.2z"/><path class="st1" d="M19.3 53.2h116.3l-.4.4h64.3C181 22.1 146.4 1 106.8 1 47.8 1 0 47.8 0 105.6c0 22.3 7.1 43 19.3 59.9V53.2z"/></svg>