<?xml version="1.0" encoding="utf-8"?>
<!-- Generator: Adobe Illustrator 19.2.0, SVG Export Plug-In . SVG Version: 6.00 Build 0)  -->
<svg version="1.1" id="Layer_1" xmlns="http://www.w3.org/2000/svg" xmlns:xlink="http://www.w3.org/1999/xlink" x="0px" y="0px"
	 viewBox="0 0 213.6 212.3" style="enable-background:new 0 0 213.6 212.3;" xml:space="preserve">
<style type="text/css">
	.st0{fill:none;}
	.st1{fill:#FFFFFF;}
</style>
<line class="st0" x1="55.6" y1="104.9" x2="99.8" y2="104.9"/>
<line class="st0" x1="69.8" y1="100.2" x2="111.6" y2="100.2"/>
<line class="st0" x1="67.9" y1="104.9" x2="109.6" y2="104.9"/>
<g>
	<path class="st1" d="M140.3,156c-27,0-40.5-11.4-40.5-34.1V79.2c0-2.3,0.2-4.4,0.5-6.4H42.5v19.6H89L65.8,112H42.5v39.2l-20.9,17.6
		c19.5,25.2,50.4,41.5,85.1,41.5c40.3,0,75.4-21.9,93.6-54.2H140.3z"/>
	<path class="st1" d="M140.3,138.9h40.5l19.8,16.6c8.3-14.8,13-31.9,13-50c0-18.6-4.9-36-13.6-51.1l-19.1,16.1h-50.7
		c-6.8,0-10.1,2.8-10.1,8.5v42.7C120.1,133.2,126.8,138.9,140.3,138.9z"/>
	<path class="st1" d="M19.3,53.2h116.3l-0.4,0.4h64.3C181,22.1,146.4,1,106.8,1C47.8,1,0,47.8,0,105.6c0,22.3,7.1,43,19.3,59.9V53.2
		z"/>
</g>
</svg>
